<?xml version="1.0" encoding="UTF-8" standalone="no"?>
<!-- Created with Inkscape (http://www.inkscape.org/) -->

<svg
   width="100mm"
   height="67mm"
   viewBox="0 0 100 67"
   version="1.1"
   id="svg48448"
   inkscape:version="1.1 (1:1.1+202105261517+ce6663b3b7)"
   sodipodi:docname="drawing.svg"
   xmlns:inkscape="http://www.inkscape.org/namespaces/inkscape"
   xmlns:sodipodi="http://sodipodi.sourceforge.net/DTD/sodipodi-0.dtd"
   xmlns="http://www.w3.org/2000/svg"
   xmlns:svg="http://www.w3.org/2000/svg">
  <sodipodi:namedview
     id="namedview48450"
     pagecolor="#505050"
     bordercolor="#eeeeee"
     borderopacity="1"
     inkscape:pageshadow="0"
     inkscape:pageopacity="0"
     inkscape:pagecheckerboard="0"
     inkscape:document-units="px"
     showgrid="false"
     inkscape:zoom="1.5466815"
     inkscape:cx="140.94693"
     inkscape:cy="145.79602"
     inkscape:window-width="1888"
     inkscape:window-height="1006"
     inkscape:window-x="16"
     inkscape:window-y="58"
     inkscape:window-maximized="1"
     inkscape:current-layer="layer1" />
  <defs
     id="defs48445">
    <rect
       x="-0.10952478"
       y="25.135109"
       width="375.61734"
       height="51.106777"
       id="rect32903" />
    <rect
       x="2.5406964"
       y="197.08595"
       width="370.90811"
       height="126.94324"
       id="rect17401" />
    <rect
       x="514.73676"
       y="402.04462"
       width="217.86118"
       height="113.80802"
       id="rect8089" />
    <rect
       x="114.04606"
       y="109.39438"
       width="896.51123"
       height="554.70758"
       id="rect4519" />
  </defs>
  <g
     inkscape:label="Layer 1"
     inkscape:groupmode="layer"
     id="layer1">
    <text
       xml:space="preserve"
       transform="scale(0.26458333)"
       id="text4517"
       style="font-style:normal;font-variant:normal;font-weight:normal;font-stretch:normal;font-size:40px;line-height:1.25;font-family:Iosevka;-inkscape-font-specification:Iosevka;letter-spacing:0px;word-spacing:0px;white-space:pre;shape-inside:url(#rect4519);fill:#000000;fill-opacity:1;stroke:none" />
    <text
       xml:space="preserve"
       transform="scale(0.26458333)"
       id="text8087"
       style="font-style:normal;font-variant:normal;font-weight:normal;font-stretch:normal;font-size:40px;line-height:1.25;font-family:Iosevka;-inkscape-font-specification:Iosevka;letter-spacing:0px;word-spacing:0px;white-space:pre;shape-inside:url(#rect8089);fill:#000000;fill-opacity:1;stroke:none" />
    <g
       aria-label="dotfiles"
       transform="matrix(0.51430747,0,0,0.51430747,-46.827313,-63.21214)"
       id="text17399"
       style="font-size:40px;line-height:1.25;font-family:Iosevka;-inkscape-font-specification:Iosevka;letter-spacing:0px;word-spacing:0px;white-space:pre;shape-inside:url(#rect17401);fill:#a3be8c;stroke:#2e3440">
      <path
         d="m 116.99542,233.69497 q -1.8,0 -3.16,-0.8 -1.48,-0.84 -2.44,-2.48 -1.32,-2.32 -1.32,-5.84 v -3.6 q 0,-3.52 1.32,-5.84 0.96,-1.64 2.44,-2.48 1.36,-0.8 3.16,-0.8 1.68,0 2.96,0.72 1.36,0.8 2.32,2.4 0.08,0.12 0.12,0.24 v -11.24 h 3.2 v 29.4 h -3.2 v -3.04 q -0.04,0.12 -0.12,0.24 -0.96,1.6 -2.32,2.4 -1.28,0.72 -2.96,0.72 z m 0.96,-2.88 q 1.12,0 1.96,-0.48 0.92,-0.52 1.56,-1.6 0.92,-1.64 0.92,-4.16 v -3.6 q 0,-2.52 -0.92,-4.16 -0.64,-1.08 -1.56,-1.6 -0.84,-0.48 -1.96,-0.48 -1.2,0 -2.12,0.52 -1,0.6 -1.64,1.72 -0.92,1.56 -0.92,4 v 3.6 q 0,2.44 0.92,4 0.64,1.12 1.64,1.72 0.92,0.52 2.12,0.52 z"
         style="text-align:center;text-anchor:middle"
         id="path48515" />
      <path
         d="m 137.99535,233.69497 q -2.32,0 -4,-0.96 -1.64,-0.96 -2.64,-2.72 -1.28,-2.2 -1.28,-5.44 v -3.6 q 0,-3.24 1.28,-5.44 1,-1.76 2.64,-2.72 1.68,-0.96 4,-0.96 2.32,0 3.96,0.96 1.68,0.96 2.68,2.72 1.28,2.2 1.28,5.44 v 3.6 q 0,3.24 -1.28,5.44 -0.76,1.32 -1.88,2.2 -0.4,0.28 -0.8,0.52 -1.64,0.96 -3.96,0.96 z m 0,-2.88 q 1.24,0 2.16,-0.52 1,-0.6 1.64,-1.72 0.92,-1.56 0.92,-4 v -3.6 q 0,-2.44 -0.92,-4 -0.64,-1.12 -1.64,-1.72 -0.92,-0.52 -2.16,-0.52 -1.24,0 -2.16,0.52 -1,0.6 -1.64,1.72 -0.92,1.56 -0.92,4 v 3.6 q 0,2.44 0.92,4 0.64,1.12 1.64,1.72 0.92,0.52 2.16,0.52 z"
         style="text-align:center;text-anchor:middle"
         id="path48517" />
      <path
         d="m 161.03527,233.69497 q -1.88,0 -3.2,-0.8 -1.4,-0.8 -2.28,-2.28 -1.16,-2.04 -1.16,-5 v -10.56 h -4.36 v -2.88 h 4.36 v -8.2 h 3.2 v 8.2 h 6.44 v 2.88 h -6.44 v 10.56 q 0,2.2 0.8,3.6 0.48,0.84 1.2,1.24 0.64,0.36 1.44,0.36 0.8,0 1.4,-0.36 0.32,-0.16 0.64,-0.48 1.16,-1.2 1.36,-3.48 l 3.12,0.68 q -0.2,1.92 -1.08,3.44 -0.88,1.48 -2.28,2.28 -1.32,0.8 -3.16,0.8 z"
         style="text-align:center;text-anchor:middle"
         id="path48519" />
      <path
         d="m 174.91519,233.37497 v -17.12 h -4.52 v -2.88 h 4.52 v -3.8 q 0,-2.28 0.92,-3.88 0.72,-1.24 1.92,-1.96 1.28,-0.72 2.96,-0.72 1.68,0 2.96,0.72 1.2,0.72 1.92,1.96 0.6,1.04 0.8,2.28 l -3.08,0.76 q -0.12,-0.92 -0.52,-1.6 -0.36,-0.64 -0.92,-0.96 -0.52,-0.28 -1.16,-0.28 -0.64,0 -1.12,0.28 -0.56,0.32 -0.92,0.96 -0.56,0.92 -0.56,2.44 v 3.8 h 6.72 v 2.88 h -6.72 v 17.12 z"
         style="text-align:center;text-anchor:middle"
         id="path48521" />
      <path
         d="m 197.99512,208.45497 q -0.8,0 -1.36,-0.28 -0.52,-0.32 -0.8,-0.84 -0.36,-0.56 -0.32,-1.36 -0.04,-0.8 0.32,-1.36 0.28,-0.52 0.8,-0.84 0.56,-0.32 1.36,-0.32 0.8,0 1.32,0.32 0.56,0.32 0.84,0.84 0.32,0.52 0.36,1.36 -0.04,0.84 -0.36,1.36 -0.28,0.52 -0.84,0.84 -0.52,0.28 -1.32,0.28 z m -7,24.92 v -2.88 h 5.68 v -15.44 h -5.12 v -2.88 h 8.32 v 18.32 h 5.12 v 2.88 z"
         style="text-align:center;text-anchor:middle"
         id="path48523" />
      <path
         d="m 210.99504,233.37497 v -2.88 h 5.68 v -23.64 h -5.12 v -2.88 h 8.32 v 26.52 h 5.12 v 2.88 z"
         style="text-align:center;text-anchor:middle"
         id="path48525" />
      <path
         d="m 238.27496,233.69497 q -0.8,0 -1.56,-0.12 -1.48,-0.24 -2.64,-0.92 -1.72,-0.96 -2.72,-2.72 -1.28,-2.2 -1.28,-5.36 v -3.6 q 0,-3.24 1.28,-5.44 1,-1.76 2.64,-2.72 1.68,-0.96 4,-0.96 2.32,0 3.96,0.96 1.68,0.96 2.68,2.72 1.28,2.2 1.28,5.44 v 3.24 h -12.64 v 0.36 q 0,2.36 0.92,3.88 0.64,1.16 1.68,1.76 1.04,0.6 2.4,0.6 1.4,0 2.4,-0.6 1.08,-0.6 1.76,-1.76 0.36,-0.68 0.6,-1.44 l 2.92,1.16 q -0.28,0.92 -0.76,1.72 -1.04,1.8 -2.72,2.76 -1.8,1.04 -4.2,1.04 z m -5,-12.36 h 9.44 v -0.36 q 0,-2.44 -0.92,-4 -0.64,-1.12 -1.64,-1.72 -0.92,-0.52 -2.16,-0.52 -1.24,0 -2.16,0.52 -1,0.6 -1.64,1.72 -0.92,1.56 -0.92,4 z"
         style="text-align:center;text-anchor:middle"
         id="path48527" />
      <path
         d="m 257.91489,233.69497 q -2.84,0 -4.68,-1.08 -1.52,-0.88 -2.4,-2.4 -0.36,-0.56 -0.56,-1.24 l 3,-0.96 q 0.16,0.36 0.32,0.72 0.56,0.92 1.48,1.44 1.08,0.64 2.84,0.64 1.88,0 3.08,-0.68 0.72,-0.44 1.12,-1.08 0.32,-0.6 0.32,-1.28 0,-0.8 -0.4,-1.44 -0.4,-0.72 -1.2,-1.2 -0.96,-0.56 -3.2,-0.8 -2.8,-0.32 -4.24,-1.12 -1.4,-0.84 -2.24,-2.24 -0.8,-1.44 -0.8,-3.2 0,-1.56 0.68,-2.76 0.72,-1.24 2.12,-2.04 1.96,-1.12 4.92,-1.12 2.84,0 4.68,1.08 1.52,0.88 2.4,2.4 0.36,0.56 0.56,1.24 l -3,0.96 q -0.16,-0.36 -0.32,-0.72 -0.56,-0.92 -1.48,-1.44 -1.08,-0.64 -2.84,-0.64 -1.88,0 -3.08,0.68 -0.72,0.44 -1.12,1.08 -0.32,0.6 -0.32,1.28 0,0.8 0.4,1.44 0.4,0.72 1.2,1.2 0.96,0.56 3.2,0.8 2.8,0.32 4.2,1.16 1.44,0.8 2.24,2.24 0.84,1.4 0.84,3.16 0,1.56 -0.68,2.76 -0.72,1.24 -2.12,2.04 -1.96,1.12 -4.92,1.12 z"
         style="text-align:center;text-anchor:middle"
         id="path48529" />
    </g>
    <g
       aria-label="totoro"
       transform="matrix(0.79047388,0,0,0.79047388,-98.246052,-16.013118)"
       id="text32901"
       style="font-size:40px;line-height:1.25;font-family:Iosevka;-inkscape-font-specification:Iosevka;text-align:center;letter-spacing:0px;word-spacing:0px;text-anchor:middle;white-space:pre;shape-inside:url(#rect32903);fill:#bf616a;stroke:#2e3440">
      <path
         d="m 145.58008,60.798797 c 0,-0.507813 -0.3125,-0.9375 -0.70313,-1.152344 -0.33203,-0.175781 -0.64453,-0.703125 -0.9375,-1.5625 -0.64453,-1.914062 -0.95703,-5.214844 -0.95703,-9.941406 0,-1.035156 0,-2.148438 0.0391,-3.320313 1.01563,0 2.01172,0.01953 3.02735,0.01953 h 0.0195 c 0.80078,0 1.21094,-0.625 1.21094,-1.25 0,-0.644532 -0.41016,-1.269532 -1.23047,-1.289063 l -2.94922,-0.01953 c 0.0586,-1.210938 0.17578,-4.726563 0.17578,-6.855469 0,-0.390625 -0.0195,-0.722656 -0.0195,-0.996094 -0.0195,-0.800781 -0.64453,-1.191406 -1.26953,-1.191406 -0.625,0 -1.26953,0.410156 -1.26953,1.210938 0,0.292968 0.0195,0.625 0.0195,1.035156 0,2.089844 -0.11719,5.625 -0.17578,6.777344 l -3.92578,-0.01953 c -0.66407,0 -1.26954,0.605469 -1.26954,1.230469 0,0.683594 0.58594,1.308594 1.26954,1.308594 1.28906,0 2.55859,0.01953 3.84765,0.01953 -0.0391,1.289063 -0.0586,2.519531 -0.0586,3.671875 0,2.304688 0.0781,4.335938 0.23437,6.074219 0.35157,4.003906 1.36719,6.464844 3.04688,7.363281 0.19531,0.09766 0.39062,0.15625 0.58594,0.15625 0.68359,0 1.28906,-0.566406 1.28906,-1.269531 z"
         style="font-family:Chilanka;-inkscape-font-specification:'Chilanka, Normal'"
         id="path48385" />
      <path
         d="m 158.56836,41.169891 c -0.15625,-0.05859 -0.3125,-0.07813 -0.46875,-0.05859 -2.30469,0.09766 -4.35547,0.976562 -6.17188,2.636719 -1.8164,1.660156 -2.89062,3.769531 -3.26171,6.367187 -0.0781,0.546875 -0.11719,1.074219 -0.11719,1.582031 0,1.992188 0.5664,3.828125 1.66015,5.527344 1.64063,2.5 4.29688,4.394531 8.14454,4.394531 2.07031,0 4.04296,-0.625 5.58593,-1.621093 2.40235,-1.542969 4.33594,-4.492188 4.33594,-8.066407 0,-2.402343 -0.625,-4.355468 -1.73828,-5.957031 -2.07031,-3.007812 -4.72656,-4.609375 -7.96875,-4.804687 z m 7.14844,10.625 c 0,1.425781 -0.3711,2.871093 -1.13282,4.0625 -1.13281,1.796875 -3.49609,3.242187 -6.17187,3.242187 -0.91797,0 -1.85547,-0.15625 -2.8125,-0.546875 -2.28516,-0.917969 -4.53125,-3.476562 -4.53125,-6.816406 0,-4.375 3.04687,-7.851563 7.05078,-8.085938 0.0977,0.03906 0.21484,0.05859 0.3125,0.05859 3.67188,0.234375 7.28516,3.554688 7.28516,8.085938 z"
         style="font-family:Chilanka;-inkscape-font-specification:'Chilanka, Normal'"
         id="path48387" />
      <path
         d="m 182.37695,60.798797 c 0,-0.507813 -0.3125,-0.9375 -0.70312,-1.152344 -0.33203,-0.175781 -0.64453,-0.703125 -0.9375,-1.5625 -0.64453,-1.914062 -0.95703,-5.214844 -0.95703,-9.941406 0,-1.035156 0,-2.148438 0.0391,-3.320313 1.01562,0 2.01172,0.01953 3.02734,0.01953 h 0.0195 c 0.80079,0 1.21094,-0.625 1.21094,-1.25 0,-0.644532 -0.41015,-1.269532 -1.23047,-1.289063 l -2.94922,-0.01953 c 0.0586,-1.210938 0.17579,-4.726563 0.17579,-6.855469 0,-0.390625 -0.0195,-0.722656 -0.0195,-0.996094 -0.0195,-0.800781 -0.64453,-1.191406 -1.26953,-1.191406 -0.625,0 -1.26953,0.410156 -1.26953,1.210938 0,0.292968 0.0195,0.625 0.0195,1.035156 0,2.089844 -0.11718,5.625 -0.17578,6.777344 l -3.92578,-0.01953 c -0.66406,0 -1.26953,0.605469 -1.26953,1.230469 0,0.683594 0.58594,1.308594 1.26953,1.308594 1.28906,0 2.55859,0.01953 3.84766,0.01953 -0.0391,1.289063 -0.0586,2.519531 -0.0586,3.671875 0,2.304688 0.0781,4.335938 0.23438,6.074219 0.35156,4.003906 1.36719,6.464844 3.04687,7.363281 0.19532,0.09766 0.39063,0.15625 0.58594,0.15625 0.68359,0 1.28906,-0.566406 1.28906,-1.269531 z"
         style="font-family:Chilanka;-inkscape-font-specification:'Chilanka, Normal'"
         id="path48389" />
      <path
         d="m 195.36523,41.169891 c -0.15625,-0.05859 -0.3125,-0.07813 -0.46875,-0.05859 -2.30468,0.09766 -4.35546,0.976562 -6.17187,2.636719 -1.81641,1.660156 -2.89063,3.769531 -3.26172,6.367187 -0.0781,0.546875 -0.11719,1.074219 -0.11719,1.582031 0,1.992188 0.56641,3.828125 1.66016,5.527344 1.64062,2.5 4.29687,4.394531 8.14453,4.394531 2.07031,0 4.04297,-0.625 5.58594,-1.621093 2.40234,-1.542969 4.33594,-4.492188 4.33594,-8.066407 0,-2.402343 -0.625,-4.355468 -1.73829,-5.957031 -2.07031,-3.007812 -4.72656,-4.609375 -7.96875,-4.804687 z m 7.14844,10.625 c 0,1.425781 -0.37109,2.871093 -1.13281,4.0625 -1.13281,1.796875 -3.49609,3.242187 -6.17188,3.242187 -0.91796,0 -1.85546,-0.15625 -2.8125,-0.546875 -2.28515,-0.917969 -4.53125,-3.476562 -4.53125,-6.816406 0,-4.375 3.04688,-7.851563 7.05079,-8.085938 0.0976,0.03906 0.21484,0.05859 0.3125,0.05859 3.67187,0.234375 7.28515,3.554688 7.28515,8.085938 z"
         style="font-family:Chilanka;-inkscape-font-specification:'Chilanka, Normal'"
         id="path48391" />
      <path
         d="m 210.28711,61.580047 c 0.54687,0 1.5625,-0.566406 1.5625,-1.152344 0,-0.15625 -0.0781,-0.351562 -0.0781,-0.683594 0,-0.605468 0.0781,-1.171875 0.15625,-2.34375 0.19532,-1.445312 0.48829,-2.832031 0.85938,-4.140625 1.5625,-5.507812 4.00391,-8.476562 7.30469,-8.886718 0.74218,-0.07813 1.07422,-0.625 1.07422,-1.191407 0,-0.664062 -0.44922,-1.328125 -1.23047,-1.328125 -0.0586,0 -0.0977,0 -0.15625,0 -3.26172,0.410157 -5.82032,2.480469 -7.71485,6.210938 -0.0586,-2.265625 -0.23437,-3.925781 -0.50781,-4.980469 -0.13672,-0.488281 -0.60547,-0.957031 -1.21094,-0.957031 -0.78125,0 -1.23047,0.546875 -1.23047,1.289062 0,0.214844 0.0195,0.46875 0.0977,0.742188 0.15625,0.625 0.27344,2.363281 0.35156,5.253906 0.0195,0.996094 0.0391,1.894531 0.0391,2.714844 0,2.285156 -0.29297,5.019531 -0.3711,6.445312 -0.0391,0.46875 -0.27344,1.015625 -0.27344,1.503907 0,0.585937 0.60547,1.503906 1.32813,1.503906 z"
         style="font-family:Chilanka;-inkscape-font-specification:'Chilanka, Normal'"
         id="path48393" />
      <path
         d="m 230.3457,41.169891 c -0.15625,-0.05859 -0.3125,-0.07813 -0.46875,-0.05859 -2.30468,0.09766 -4.35547,0.976562 -6.17187,2.636719 -1.81641,1.660156 -2.89063,3.769531 -3.26172,6.367187 -0.0781,0.546875 -0.11719,1.074219 -0.11719,1.582031 0,1.992188 0.56641,3.828125 1.66016,5.527344 1.64062,2.5 4.29687,4.394531 8.14453,4.394531 2.07031,0 4.04297,-0.625 5.58594,-1.621093 2.40234,-1.542969 4.33593,-4.492188 4.33593,-8.066407 0,-2.402343 -0.625,-4.355468 -1.73828,-5.957031 -2.07031,-3.007812 -4.72656,-4.609375 -7.96875,-4.804687 z m 7.14844,10.625 c 0,1.425781 -0.37109,2.871093 -1.13281,4.0625 -1.13281,1.796875 -3.4961,3.242187 -6.17188,3.242187 -0.91797,0 -1.85547,-0.15625 -2.8125,-0.546875 -2.28515,-0.917969 -4.53125,-3.476562 -4.53125,-6.816406 0,-4.375 3.04688,-7.851563 7.05078,-8.085938 0.0977,0.03906 0.21485,0.05859 0.3125,0.05859 3.67188,0.234375 7.28516,3.554688 7.28516,8.085938 z"
         style="font-family:Chilanka;-inkscape-font-specification:'Chilanka, Normal'"
         id="path48395" />
    </g>
  </g>
</svg>
