<?xml version="1.0" encoding="UTF-8" standalone="no"?>
<!-- Generator: Adobe Illustrator 19.0.0, SVG Export Plug-In . SVG Version: 6.00 Build 0)  -->

<svg
   version="1.1"
   id="Layer_1"
   x="0px"
   y="0px"
   viewBox="0 0 280.173 280.173"
   style="enable-background:new 0 0 280.173 280.173;"
   xml:space="preserve"
   sodipodi:docname="ghost-black.svg"
   inkscape:version="1.1 (1:1.1+202105261517+ce6663b3b7)"
   xmlns:inkscape="http://www.inkscape.org/namespaces/inkscape"
   xmlns:sodipodi="http://sodipodi.sourceforge.net/DTD/sodipodi-0.dtd"
   xmlns="http://www.w3.org/2000/svg"
   xmlns:svg="http://www.w3.org/2000/svg"><defs
   id="defs51" /><sodipodi:namedview
   id="namedview49"
   pagecolor="#505050"
   bordercolor="#ffffff"
   borderopacity="1"
   inkscape:pageshadow="0"
   inkscape:pageopacity="0"
   inkscape:pagecheckerboard="1"
   showgrid="false"
   inkscape:zoom="2.2985798"
   inkscape:cx="140.0865"
   inkscape:cy="120.72672"
   inkscape:window-width="1920"
   inkscape:window-height="1080"
   inkscape:window-x="0"
   inkscape:window-y="0"
   inkscape:window-maximized="1"
   inkscape:current-layer="g16" />
<g
   id="g16">
	<path
   style="fill:#222222;fill-opacity:1"
   d="M133.961,0.145C63.079,3.645,8.824,64.026,8.824,134.908v66.506l0,0c0,15.752,0,48.13,0,65.631   c0,6.126,6.126,9.626,11.376,6.126l20.127-12.251c7.876-4.375,17.502-4.375,25.377,0l18.377,10.501   c7.876,4.375,17.502,4.375,25.377,0l18.377-10.501c7.876-4.375,17.502-4.375,25.377,0l18.377,10.501   c7.876,4.375,17.502,4.375,25.377,0l18.377-10.501c7.876-4.375,17.502-4.375,25.377,0l19.252,11.376   c5.251,2.625,11.376-0.875,11.376-6.126c0-18.377,0-50.755,0-65.631l0,0v-70.007C271.349,57.025,209.218-3.355,133.961,0.145z"
   id="path2" />
	<g
   id="g10">
		<g
   id="g8">
			<g
   id="g6">
				<path
   style="fill:#11120d;fill-opacity:1"
   d="M26.325,131.408c0-69.132,54.255-126.012,122.512-131.263c-2.625,0-6.126,0-8.751,0      C67.454,0.145,8.824,58.776,8.824,131.408c0,0,0,147.889,0,148.765c7.876,0,13.126-3.5,17.502-7.876      C26.325,256.545,26.325,131.408,26.325,131.408z"
   id="path4" />
			</g>
		</g>
	</g>
	<path
   style="fill:#E4E7E7;"
   d="M188.216,113.906c-16.627,0-30.628,14.001-30.628,30.628s14.001,30.628,30.628,30.628   s30.628-14.001,30.628-30.628S204.843,113.906,188.216,113.906z M91.957,113.906c-16.627,0-30.628,14.001-30.628,30.628   s14.001,30.628,30.628,30.628s30.628-14.001,30.628-30.628S108.583,113.906,91.957,113.906z"
   id="path12" />
	<path
   style="fill:#324D5B;"
   d="M188.216,131.408c-7.001,0-13.126,6.126-13.126,13.126c0,7.001,6.126,13.126,13.126,13.126   s13.126-6.126,13.126-13.126C201.342,137.533,195.217,131.408,188.216,131.408z M91.957,131.408   c-7.001,0-13.126,6.126-13.126,13.126c0,7.001,6.126,13.126,13.126,13.126c7.001,0,13.126-6.126,13.126-13.126   C105.083,137.533,98.957,131.408,91.957,131.408z"
   id="path14" />
</g>
<g
   id="g18">
</g>
<g
   id="g20">
</g>
<g
   id="g22">
</g>
<g
   id="g24">
</g>
<g
   id="g26">
</g>
<g
   id="g28">
</g>
<g
   id="g30">
</g>
<g
   id="g32">
</g>
<g
   id="g34">
</g>
<g
   id="g36">
</g>
<g
   id="g38">
</g>
<g
   id="g40">
</g>
<g
   id="g42">
</g>
<g
   id="g44">
</g>
<g
   id="g46">
</g>
</svg>
